<svg width="16" height="17" viewBox="0 0 16 17" fill="none" xmlns="http://www.w3.org/2000/svg">
<path d="M10.6915 16.2155H1.39294C0.624891 16.2155 0 15.5387 0 14.7067V1.50886C0 0.676858 0.624891 0 1.39294 0H10.6915C11.4596 0 12.0844 0.676892 12.0844 1.50886V5.86264C12.0844 6.1466 11.8719 6.3768 11.6098 6.3768C11.3476 6.3768 11.1351 6.1466 11.1351 5.86264V1.50886C11.1351 1.24386 10.9361 1.02829 10.6915 1.02829H1.39294C1.14831 1.02829 0.949275 1.24386 0.949275 1.50886V14.7066C0.949275 14.9716 1.14828 15.1872 1.39294 15.1872H10.6915C10.9362 15.1872 11.1352 14.9716 11.1352 14.7066V12.9923C11.1352 12.7083 11.3477 12.4781 11.6098 12.4781C11.8719 12.4781 12.0844 12.7083 12.0844 12.9923V14.7066C12.0844 15.5387 11.4596 16.2155 10.6915 16.2155Z" fill="#6A4DA3"/>
<path d="M8.72386 2.77783H3.3606V4.86873H8.72386V2.77783Z" fill="#D2B356"/>
<path d="M8.72383 5.38279H3.36059C3.09846 5.38279 2.88596 5.15262 2.88596 4.86863V2.77783C2.88596 2.49387 3.09846 2.26367 3.36059 2.26367H8.72383C8.98596 2.26367 9.19846 2.49387 9.19846 2.77783V4.86873C9.19846 5.15263 8.98596 5.38279 8.72383 5.38279ZM3.83523 4.35451H8.24922V3.29196H3.83523V4.35451Z" fill="#6A4DA3"/>
<path d="M15.5258 5.38955C15.4043 5.38955 15.2828 5.33938 15.1902 5.23898L13.9622 3.90872L12.9989 4.95227C12.8136 5.15306 12.5131 5.15309 12.3277 4.95227C12.1423 4.75149 12.1423 4.42593 12.3277 4.22518L13.6266 2.81804C13.812 2.61733 14.1125 2.61726 14.2978 2.81804L15.8615 4.51185C16.0468 4.71263 16.0468 5.03819 15.8615 5.23901C15.7688 5.33938 15.6473 5.38955 15.5258 5.38955Z" fill="#6A4DA3"/>
<path d="M12.6632 4.58887L6.68026 11.07L6.43069 13.0342L8.24387 12.7638L14.2268 6.28267L12.6632 4.58887Z" fill="#D2B356"/>
<path d="M6.43072 13.5483C6.30575 13.5483 6.18472 13.4948 6.09512 13.3977C5.99009 13.284 5.9403 13.1235 5.96055 12.964L6.21012 10.9999C6.22422 10.8888 6.2715 10.7857 6.34469 10.7064L12.3276 4.22529C12.4166 4.12887 12.5374 4.07471 12.6632 4.07471C12.7891 4.07471 12.9099 4.12891 12.9988 4.22529L14.5624 5.91909C14.7478 6.11987 14.7478 6.44544 14.5624 6.64619L8.57953 13.1274C8.50634 13.2067 8.41118 13.2579 8.30862 13.2732L6.4955 13.5435C6.47385 13.5467 6.45222 13.5483 6.43072 13.5483ZM7.12871 11.3113L6.98627 12.4324L8.02104 12.278L13.5556 6.28267L12.6632 5.31596L7.12871 11.3113Z" fill="#6A4DA3"/>
<path d="M6.43067 13.5483H3.36056C3.09843 13.5483 2.88593 13.3182 2.88593 13.0342C2.88593 12.7502 3.09843 12.52 3.36056 12.52H6.43067C6.69281 12.52 6.90531 12.7502 6.90531 13.0342C6.90531 13.3182 6.69284 13.5483 6.43067 13.5483Z" fill="#6A4DA3"/>
</svg>
