<svg width="20" height="20" viewBox="0 0 20 20" fill="none" xmlns="http://www.w3.org/2000/svg">
<path d="M14.1667 5L11.6667 2.5H8.33334L5.83334 5H4.58334V16.6667C4.58334 17.5833 5.33334 18.3333 6.25001 18.3333H13.75C14.6667 18.3333 15.4167 17.5833 15.4167 16.6667V5H14.1667Z" fill="#9575CD"/>
<path d="M10.2084 16.2502H9.79169C9.45835 16.2502 9.16669 15.9585 9.16669 15.6252V7.7085C9.16669 7.37516 9.45835 7.0835 9.79169 7.0835H10.2084C10.5417 7.0835 10.8334 7.37516 10.8334 7.7085V15.6252C10.8334 15.9585 10.5417 16.2502 10.2084 16.2502Z" fill="#7454B3"/>
<path d="M13.125 16.2502C12.7917 16.2502 12.5 15.9585 12.5 15.6252V7.7085C12.5 7.37516 12.7917 7.0835 13.125 7.0835C13.4583 7.0835 13.75 7.37516 13.75 7.7085V15.6252C13.75 15.9585 13.4583 16.2502 13.125 16.2502Z" fill="#7454B3"/>
<path d="M6.875 16.2502C6.54167 16.2502 6.25 15.9585 6.25 15.6252V7.7085C6.25 7.37516 6.54167 7.0835 6.875 7.0835C7.20833 7.0835 7.5 7.37516 7.5 7.7085V15.6252C7.5 15.9585 7.20833 16.2502 6.875 16.2502Z" fill="#7454B3"/>
<path d="M4.58333 3.3335H15.4167C15.875 3.3335 16.25 3.7085 16.25 4.16683V5.00016H3.75V4.16683C3.75 3.7085 4.125 3.3335 4.58333 3.3335Z" fill="#B39DDB"/>
</svg>
